<svg xmlns="http://www.w3.org/2000/svg" enable-background="new 0 0 512 512" viewBox="0 0 512 512"><circle cx="256" cy="256" r="252.5" fill="#90DFAA"/><path fill="#FFF" d="M392.4,95c0,0-93.2-30.4-105,115.9l18.6,3.2l54.4-56.2c0,0,23.8-38.6,25.8-39.2   C388.3,118,392.4,95,392.4,95z"/><path fill="#E6E9EE" d="M287.5,210.9c0,0,38.3-86.6,105-115.9c0,0,22.8,81.9-86.6,134.2L287.5,210.9z"/><path fill="#FFF" d="M119.6,95c0,0,93.2-30.4,105,115.9l-18.6,3.2l-54.4-56.2c0,0-23.8-38.6-25.8-39.2   C123.7,118,119.6,95,119.6,95z"/><path fill="#E6E9EE" d="M224.5,210.9c0,0-38.3-86.6-105-115.9c0,0-22.8,81.9,86.6,134.2L224.5,210.9z"/><path fill="#FFF" d="M353.8,275.2c0,84.6-43.8,179.2-97.8,179.2c-54,0-97.8-94.6-97.8-179.2c0-84.6,43.8-91,97.8-91   C310,184.2,353.8,190.6,353.8,275.2z"/><ellipse cx="256" cy="411.4" fill="#324A5E" rx="65.2" ry="56.7"/><ellipse cx="283.6" cy="398.3" fill="#2B3B4E" rx="13.5" ry="9.6"/><ellipse cx="228.4" cy="398.3" fill="#2B3B4E" rx="13.5" ry="9.6"/><g><path fill="#E6E9EE" d="M336.9,252.5c5.4,14.8,7,30.9,4.4,46.5c-4-9.2-9-17.9-14.9-25.9c5.7,11.8,7.5,25.3,5.2,38.2    c-0.3,1.6-1,3.6-2.6,3.9c-1.2,0.2-2.2-0.6-3.2-1.3c-5.1-3.9-10.9-7.1-17.2-8.2c-6.3-1.2-13.2-0.1-18.3,3.9    c-8.7,6.9-9.5,19.6-9.6,30.7c-4.8-8.4-6-18.2-7.1-27.8c-1.2-10.7-2.5-21.5-3.7-32.2c-0.8-6.7-1.5-13.6,0.4-20.1    c1.9-6.5,7.1-12.5,13.9-13c-11.6,8.4-14.1,24.5-14.5,38.9c5-9.3,6.3-21.6,15.1-27.4c4.7-3.1,10.7-3.6,16.3-4    c-8.1,6-14.1,14.7-16.7,24.4c4.6-4.2,7.9-9.5,12.3-13.9c5.1-5.1,11.8-8.9,19-9.3c7.2-0.4,14.8,3,18.3,9.2    c-7.2-6.5-14.8-12.7-23.6-17.1c-8.7-4.3-18.6-6.7-28.2-5.1c-1.1-5.1,5.1-8.5,10.2-9.8c8.6-2.2,17.7-3.7,26.3-1.3    c8.5,2.4,16.3,9.7,16.5,18.6"/><ellipse cx="305.9" cy="284.3" fill="#FFF" rx="14.6" ry="27.5" transform="rotate(154.649 305.87 284.276)"/><ellipse cx="306.7" cy="288.6" fill="#54C0EB" rx="11.5" ry="17.8" transform="rotate(154.649 306.738 288.624)"/><ellipse cx="306.7" cy="288.6" fill="#2B3B4E" rx="5.8" ry="9" transform="rotate(154.649 306.74 288.62)"/><ellipse cx="302.3" cy="279.9" fill="#FFF" rx="3.6" ry="4.4"/><path fill="#324A5E" d="M279.5,242.5c0,0,2.6-1.1,6.2-2.1c0.9-0.3,1.9-0.4,2.8-0.6c1-0.1,2-0.3,3.1-0.3c1.1-0.1,2.1,0,3.2,0     c1.1,0,2.2,0.2,3.3,0.4c1.1,0.3,2.2,0.4,3.3,0.8c1,0.4,2.2,0.6,3.2,1.1c1.1,0.4,2.1,0.8,3,1.2c0.9,0.5,1.9,0.9,2.8,1.3     c1.8,0.7,3.2,1.6,4.3,2c1.1,0.5,1.8,0.7,1.8,0.7s-0.3-0.6-0.9-1.7c-0.3-0.5-0.7-1.2-1.1-1.9c-0.4-0.7-1-1.5-1.7-2.3     c-0.7-0.8-1.5-1.6-2.4-2.5c-0.9-0.8-2-1.5-3.1-2.3c-1.1-0.8-2.4-1.3-3.7-1.9c-1.3-0.6-2.8-0.8-4.3-1.2c-1.5-0.2-3-0.4-4.5-0.3     c-1.5,0.1-2.9,0.3-4.3,0.7c-1.4,0.3-2.6,0.9-3.7,1.4c-1.1,0.6-2.1,1.3-2.9,2c-1.7,1.3-2.8,2.8-3.5,3.8     C279.7,241.8,279.5,242.5,279.5,242.5z"/><path fill="#E6E9EE" d="M175.1,252.5c-5.4,14.8-7,30.9-4.4,46.5c4-9.2,9-17.9,14.9-25.9c-5.7,11.8-7.5,25.3-5.2,38.2    c0.3,1.6,1,3.6,2.6,3.9c1.2,0.2,2.2-0.6,3.2-1.3c5.1-3.9,10.9-7.1,17.2-8.2c6.3-1.2,13.2-0.1,18.3,3.9c8.7,6.9,9.5,19.6,9.6,30.7    c4.8-8.4,6-18.2,7.1-27.8c1.2-10.7,2.5-21.5,3.7-32.2c0.8-6.7,1.5-13.6-0.4-20.1c-1.9-6.5-7.1-12.5-13.9-13    c11.6,8.4,14.1,24.5,14.5,38.9c-5.1-9.3-6.3-21.6-15.1-27.4c-4.7-3.1-10.7-3.6-16.3-4c8.1,6,14.1,14.7,16.7,24.4    c-4.6-4.2-7.9-9.5-12.3-13.9c-5.1-5.1-11.8-8.9-19-9.3c-7.2-0.4-14.8,3-18.3,9.2c7.2-6.5,14.8-12.7,23.6-17.1    c8.7-4.3,18.6-6.7,28.2-5.1c1.1-5.1-5.1-8.5-10.2-9.8c-8.6-2.2-17.7-3.7-26.3-1.3s-16.3,9.7-16.5,18.6"/><g><ellipse cx="206.1" cy="284.3" fill="#FFF" rx="14.6" ry="27.5" transform="rotate(25.351 206.113 284.271)"/><ellipse cx="205.3" cy="288.6" fill="#54C0EB" rx="11.5" ry="17.8" transform="rotate(25.351 205.24 288.61)"/><ellipse cx="205.3" cy="288.6" fill="#2B3B4E" rx="5.8" ry="9" transform="rotate(25.351 205.247 288.628)"/><ellipse cx="209.7" cy="279.9" fill="#FFF" rx="3.6" ry="4.4"/><path fill="#324A5E" d="M232.5,242.5c0,0-2.6-1.1-6.2-2.1c-0.9-0.3-1.9-0.4-2.8-0.6c-1-0.1-2-0.3-3.1-0.3c-1.1-0.1-2.1,0-3.2,0     c-1.1,0-2.2,0.2-3.3,0.4c-1.1,0.3-2.2,0.4-3.3,0.8c-1,0.4-2.2,0.6-3.2,1.1c-1.1,0.4-2.1,0.8-3,1.2c-0.9,0.5-1.9,0.9-2.8,1.3     c-1.8,0.7-3.2,1.6-4.3,2c-1.1,0.5-1.8,0.7-1.8,0.7s0.3-0.6,0.9-1.7c0.3-0.5,0.7-1.2,1.1-1.9c0.4-0.7,1-1.5,1.7-2.3     c0.7-0.8,1.5-1.6,2.4-2.5c0.9-0.8,2-1.5,3.1-2.3c1.1-0.8,2.4-1.3,3.7-1.9c1.3-0.6,2.8-0.8,4.3-1.2c1.5-0.2,3-0.4,4.5-0.3     c1.5,0.1,2.9,0.3,4.3,0.7c1.4,0.3,2.6,0.9,3.7,1.4c1.1,0.6,2.1,1.3,2.9,2c1.7,1.3,2.8,2.8,3.5,3.8     C232.3,241.8,232.5,242.5,232.5,242.5z"/></g></g></svg>