<svg xmlns="http://www.w3.org/2000/svg" enable-background="new 0 0 512 512" viewBox="0 0 512 512"><circle cx="256" cy="256" r="252.5" fill="#FFD05B"/><path fill="#2B3B4E" d="M395.8 134.9l0-27.7h-27.7c-36.6 0-66.3 29.7-66.3 66.3l0 27.7h27.7C366.1 201.2 395.8 171.5 395.8 134.9zM116.2 134.9v-27.7h27.7c36.6 0 66.3 29.7 66.3 66.3l0 27.7h-27.7C145.9 201.2 116.2 171.5 116.2 134.9z"/><path fill="#324A5E" d="M378.6,260.1v2.5c0-65.1-54.9-117.8-122.6-117.8h0c-67.7,0-122.6,52.7-122.6,117.8v-2.5   c0,9.7-8.2,17.6-18.3,17.6c3.7,71.7,65.4,128.7,140.9,128.7s137.2-57,140.9-128.7C386.8,277.6,378.6,269.8,378.6,260.1z"/><path fill="#ACB3BA" d="M284.5,314.7c0,13.7-13.7,31.2-30.5,31.2s-30.5-17.4-30.5-31.2s13.7-18.5,30.5-18.5   S284.5,300.9,284.5,314.7z"/><path fill="#FFF" d="M328.7 314.5c0 0 2.4-.1 6.7 0 4.3.2 10.4.4 17.7 1.3 3.7.4 7.6 1 11.8 1.7 4.2.7 8.6 1.5 13 2.6 9 2.2 18.4 5 27.6 8.8 4.6 1.9 9 4.1 13.3 6.4 2.2 1.1 4.2 2.4 6.3 3.6 2 1.3 4 2.6 5.9 3.9 3.8 2.7 7.2 5.6 10.3 8.6 3.1 2.9 5.7 6 8.1 8.9 1.1 1.5 2.2 2.9 3.2 4.3.9 1.4 1.7 2.8 2.5 4.1 1.6 2.6 2.6 5 3.6 6.9 1.6 4 2.4 6.3 2.4 6.3s-1.1-2.2-3-6c-1.1-1.8-2.3-4.1-4-6.5-.9-1.2-1.8-2.5-2.7-3.8-1.1-1.3-2.2-2.6-3.3-4-2.4-2.7-5.1-5.5-8.3-8.2-3.1-2.7-6.6-5.3-10.3-8-1.9-1.3-3.8-2.5-5.8-3.7-2-1.1-4-2.4-6.2-3.4-4.2-2.2-8.6-4.3-13.1-6.1-8.9-3.8-18.1-6.8-27-9.1-8.8-2.3-17.1-4.1-24.3-5.3C338.5 315.2 328.7 314.5 328.7 314.5zM318.8 326c0 0 2.2.3 6 .9 3.8.7 9.2 1.7 15.6 3.3 6.4 1.6 13.9 3.5 21.7 6 3.9 1.3 8 2.6 12 4.1 4.1 1.5 8.2 3.1 12.2 4.8 8.1 3.5 16 7.4 23.1 11.8 3.6 2.1 6.9 4.4 9.9 6.7 3.1 2.2 5.9 4.5 8.3 6.8 2.5 2.2 4.6 4.4 6.3 6.5 1.8 2 3.2 3.9 4.3 5.5 1.2 1.5 1.8 3 2.3 3.8.5.9.8 1.4.8 1.4s-.3-.4-.9-1.3c-.6-.8-1.4-2.1-2.7-3.5-1.2-1.5-2.7-3.2-4.7-5-.9-1-2-1.9-3.1-2.9-1.1-1-2.3-2-3.6-3-2.5-2.1-5.4-4.2-8.5-6.2-3.1-2.1-6.5-4.1-10-6.1-7.1-4-14.9-7.8-22.9-11.2-8-3.5-16.2-6.5-23.9-9.3-7.7-2.7-15-5.1-21.3-7-6.3-1.9-11.5-3.5-15.2-4.5C320.9 326.6 318.8 326 318.8 326zM314.1 345c0 0 1.9.1 5.3.5 3.3.4 8.1 1 13.8 2.3 5.6 1.2 12.2 2.9 19.1 5.2 3.4 1.2 7 2.5 10.5 4 3.5 1.5 7 3.2 10.5 5 3.4 1.8 6.7 3.9 10 6 3.2 2.2 6.2 4.5 8.9 6.8 5.6 4.8 10 10 13.3 14.8.8 1.2 1.6 2.4 2.3 3.5.6 1.2 1.2 2.3 1.8 3.3 1.1 2.1 1.8 4 2.5 5.6 1.1 3.2 1.7 5 1.7 5s-.8-1.7-2.3-4.8c-.9-1.4-1.7-3.3-3-5.2-1.3-2-2.8-4.1-4.5-6.3-1.8-2.2-3.8-4.6-6.1-6.8-2.3-2.3-4.9-4.5-7.6-6.8-2.7-2.2-5.8-4.3-8.8-6.4-3.1-2-6.4-4-9.7-5.7-3.3-1.8-6.7-3.5-10.2-5-3.4-1.5-6.8-3-10.2-4.2-6.7-2.5-13-4.7-18.5-6.2-5.5-1.5-10.1-2.8-13.4-3.5C315.9 345.5 314.1 345 314.1 345z"/><g><path fill="#FFF" d="M183.3 314.5c0 0-9.8.7-24.2 3.3-7.2 1.2-15.5 3-24.3 5.3-8.8 2.3-18.1 5.3-27 9.1-4.5 1.8-8.9 3.9-13.1 6.1-2.1 1.1-4.1 2.3-6.2 3.4-2 1.2-3.9 2.5-5.8 3.7-3.7 2.6-7.2 5.2-10.3 8-3.1 2.7-5.9 5.5-8.3 8.2-1.2 1.4-2.3 2.7-3.3 4-1 1.3-1.9 2.6-2.7 3.8-1.7 2.4-2.9 4.7-4 6.5-1.9 3.8-3 6-3 6s.8-2.3 2.4-6.3c1-1.9 2-4.3 3.6-6.9.8-1.3 1.6-2.7 2.5-4.1 1-1.4 2.1-2.8 3.2-4.3 2.3-2.9 5-5.9 8.1-8.9 3.1-3 6.5-5.9 10.3-8.6 1.9-1.3 3.9-2.6 5.9-3.9 2.1-1.2 4.1-2.5 6.3-3.6 4.3-2.3 8.7-4.5 13.3-6.4 9.1-3.7 18.6-6.6 27.6-8.8 4.5-1.1 8.9-1.9 13-2.6 4.2-.7 8.1-1.3 11.8-1.7 7.3-.9 13.4-1.1 17.7-1.3C180.9 314.4 183.3 314.5 183.3 314.5zM193.2 326c0 0-2.1.6-5.8 1.6-3.7 1-8.9 2.6-15.2 4.5-6.3 1.9-13.5 4.3-21.3 7-7.7 2.7-15.9 5.8-23.9 9.3-8 3.4-15.8 7.2-22.9 11.2-3.5 2-6.9 4-10 6.1-3.1 2-6 4.1-8.5 6.2-1.3 1-2.5 2-3.6 3-1.1 1-2.2 1.9-3.1 2.9-1.9 1.8-3.4 3.6-4.7 5-1.3 1.4-2.1 2.7-2.7 3.5-.6.8-.9 1.3-.9 1.3s.3-.5.8-1.4c.6-.9 1.2-2.3 2.3-3.8 1.1-1.6 2.5-3.5 4.3-5.5 1.7-2 3.8-4.3 6.3-6.5 2.4-2.3 5.2-4.5 8.3-6.8 3-2.3 6.4-4.5 9.9-6.7 7.1-4.3 15-8.3 23.1-11.8 4.1-1.7 8.2-3.4 12.2-4.8 4.1-1.5 8.1-2.8 12-4.1 7.9-2.5 15.3-4.4 21.7-6 6.4-1.6 11.8-2.5 15.6-3.3C191 326.3 193.2 326 193.2 326zM197.9 345c0 0-1.9.4-5.2 1.1-3.3.7-7.9 2-13.4 3.5-5.5 1.5-11.9 3.7-18.5 6.2-3.3 1.3-6.7 2.7-10.2 4.2-3.4 1.5-6.8 3.2-10.2 5-3.4 1.8-6.6 3.7-9.7 5.7-3.1 2.1-6.1 4.2-8.8 6.4-2.7 2.2-5.3 4.5-7.6 6.8-2.3 2.3-4.3 4.6-6.1 6.8-1.7 2.2-3.2 4.4-4.5 6.3-1.3 1.9-2.2 3.8-3 5.2-1.5 3-2.3 4.8-2.3 4.8s.6-1.8 1.7-5c.7-1.5 1.4-3.5 2.5-5.6.6-1 1.1-2.2 1.8-3.3.7-1.1 1.5-2.3 2.3-3.5 3.3-4.8 7.8-10.1 13.3-14.8 2.8-2.4 5.8-4.7 8.9-6.8 3.2-2.1 6.5-4.1 10-6 3.4-1.8 7-3.5 10.5-5 3.5-1.5 7-2.8 10.5-4 6.9-2.4 13.4-4 19.1-5.2 5.7-1.2 10.4-1.8 13.8-2.3C196 345.1 197.9 345 197.9 345z"/></g><g><path fill="#FFF" d="M282.6,252.9c2,15.8,14.2,28,27.4,27.3c13.2-0.7,22.3-14,20.3-29.7c-2-15.8-14.2-28-27.4-27.3      C289.7,223.8,280.6,237.1,282.6,252.9z"/><path fill="#F9B54C" d="M286.5,257.2c1.3,10.2,10.7,18.1,21,17.6c10.3-0.5,17.7-9.2,16.4-19.5c-1.3-10.2-10.7-18.1-21-17.6      C292.6,238.2,285.3,246.9,286.5,257.2z"/><path fill="#2B3B4E" d="M295.8,256.7c0.6,5.2,5.4,9.2,10.7,8.9c5.2-0.3,9-4.7,8.3-9.9c-0.6-5.2-5.4-9.2-10.7-8.9      C298.8,247.1,295.1,251.5,295.8,256.7z"/><path fill="#FFF" d="M298,244.7c-1.4,2.4-0.1,4.9,3,5.6c3,0.7,6.7-0.6,8.1-2.9c1.4-2.4,0.1-4.9-3-5.6      C303,241.1,299.4,242.4,298,244.7z"/><path fill="#2B3B4E" d="M280.6,212.6c0,0,3.7-1.6,8.7-2.9c1.2-0.4,2.6-0.5,4-0.9c1.4-0.1,2.8-0.5,4.3-0.5c1.5-0.2,3-0.1,4.5,0     c1.5,0.1,3,0.3,4.6,0.5c1.5,0.4,3.1,0.6,4.6,1.1c1.5,0.6,3,0.8,4.5,1.5c1.5,0.6,2.9,1.1,4.2,1.7c1.3,0.7,2.6,1.2,3.9,1.8     c2.5,1,4.5,2.2,6,2.8c1.5,0.7,2.5,1,2.5,1s-0.4-0.9-1.2-2.4c-0.4-0.7-0.9-1.6-1.6-2.6c-0.6-1-1.4-2.1-2.4-3.2     c-1-1.1-2.1-2.3-3.3-3.4c-1.3-1.1-2.8-2.1-4.3-3.2c-1.5-1.1-3.4-1.8-5.2-2.7c-1.8-0.9-3.9-1.2-5.9-1.7c-2.1-0.2-4.2-0.5-6.3-0.4     c-2.1,0.1-4.1,0.4-6,1c-1.9,0.4-3.6,1.3-5.2,2c-1.5,0.9-2.9,1.8-4.1,2.8c-2.4,1.8-3.9,3.9-4.9,5.3     C280.9,211.6,280.6,212.6,280.6,212.6z"/><g><path fill="#FFF" d="M229.4,252.9c-2,15.8-14.2,28-27.4,27.3c-13.2-0.7-22.3-14-20.3-29.7c2-15.8,14.2-28,27.4-27.3      C222.3,223.8,231.4,237.1,229.4,252.9z"/><path fill="#F9B54C" d="M225.5,257.2c-1.3,10.2-10.7,18.1-21,17.6c-10.3-0.5-17.7-9.2-16.4-19.5c1.3-10.2,10.7-18.1,21-17.6      C219.4,238.2,226.7,246.9,225.5,257.2z"/><path fill="#2B3B4E" d="M216.2,256.7c-0.6,5.2-5.4,9.2-10.7,8.9c-5.2-0.3-9-4.7-8.3-9.9c0.6-5.2,5.4-9.2,10.7-8.9      C213.2,247.1,216.9,251.5,216.2,256.7z"/><path fill="#FFF" d="M214,244.7c1.4,2.4,0.1,4.9-3,5.6c-3,0.7-6.7-0.6-8.1-2.9c-1.4-2.4-0.1-4.9,3-5.6      C209,241.1,212.6,242.4,214,244.7z"/><path fill="#2B3B4E" d="M231.4,212.6c0,0-3.7-1.6-8.7-2.9c-1.2-0.4-2.6-0.5-4-0.9c-1.4-0.1-2.8-0.5-4.3-0.5c-1.5-0.2-3-0.1-4.5,0     c-1.5,0.1-3,0.3-4.6,0.5c-1.5,0.4-3.1,0.6-4.6,1.1c-1.5,0.6-3,0.8-4.5,1.5c-1.5,0.6-2.9,1.1-4.2,1.7c-1.3,0.7-2.6,1.2-3.9,1.8     c-2.5,1-4.5,2.2-6,2.8c-1.5,0.7-2.5,1-2.5,1s0.4-0.9,1.2-2.4c0.4-0.7,0.9-1.6,1.6-2.6c0.6-1,1.4-2.1,2.4-3.2     c1-1.1,2.1-2.3,3.3-3.4c1.3-1.1,2.8-2.1,4.3-3.2c1.5-1.1,3.4-1.8,5.2-2.7c1.8-0.9,3.9-1.2,5.9-1.7c2.1-0.2,4.2-0.5,6.3-0.4     c2.1,0.1,4.1,0.4,6,1c1.9,0.4,3.6,1.3,5.2,2c1.5,0.9,2.9,1.8,4.1,2.8c2.4,1.8,3.9,3.9,4.9,5.3     C231.1,211.6,231.4,212.6,231.4,212.6z"/></g></g></svg>