<svg xmlns="http://www.w3.org/2000/svg" enable-background="new 0 0 512 512" viewBox="0 0 512 512"><circle cx="256" cy="256" r="252.5" fill="#324A5E"/><path fill="#FFD05B" d="M127.8,288.8h256.4c-10.9-23.6-13.1-42.3-13.3-52.8c0.2-3.1,0.5-6.3,0.5-9.5c0-65-51.7-117.7-115.4-117.7   c-63.8,0-115.4,52.7-115.4,117.7c0,3.2,0.2,6.4,0.5,9.5C140.9,246.5,138.7,265.2,127.8,288.8z"/><path fill="#FFF" d="M319.6,239.6c4.9,20.8-0.7,39.9-12.6,42.7c-11.8,2.8-25.4-11.8-30.3-32.5c-4.9-20.8,0.7-39.9,12.6-42.7    C301.2,204.3,314.7,218.8,319.6,239.6z"/><ellipse cx="298.2" cy="247.7" fill="#84DBFF" rx="14.1" ry="15.6"/><ellipse cx="298.8" cy="249.9" fill="#324A5E" rx="9.5" ry="10.5"/><circle cx="292.8" cy="241.3" r="3.4" fill="#FFF"/><circle cx="297.5" cy="246" r="1.4" fill="#FFF"/><path fill="#324A5E" d="M313.6,222c0.6,0.1,1.1,0.2,1.8,0.2c2,0.1,3.9-0.6,3.9-0.6s-1.9,0.2-3.7-0.4c-0.9-0.3-1.7-0.6-2.3-0.9    c-0.3-0.1-0.5-0.2-0.6-0.3c-0.2-0.3-0.4-0.7-0.6-1c-0.3-0.5-0.5-0.9-0.8-1.4c0.5,0,0.9,0.1,1.4,0.1c1.3,0,2.7-0.2,3.6-0.4    c1-0.2,1.5-0.5,1.5-0.5s-0.6,0.1-1.6,0c-0.9,0-2.2-0.3-3.3-0.6c-1.2-0.4-2.3-0.9-3.1-1.3c-0.4-0.2-0.6-0.3-0.8-0.5    c-0.5-0.6-1-1.2-1.5-1.8c0.4,0,0.7,0.1,1.1,0.1c2,0.1,4-0.1,5.4-0.4c1.5-0.3,2.4-0.7,2.4-0.7s-1,0.2-2.4,0.2    c-1.4,0-3.3-0.2-5.2-0.7c-1.8-0.4-3.4-1.1-4.7-1.7c-2.6-2.1-5.9-3.9-9.6-4.4c-2.2-0.3-4.6,0-6.6,0.6c-2.2,0.7-4,2-5.5,3.4    c-3,2.9-4.5,6.3-5.5,9.2c-0.9,2.9-1.1,5.5-1.3,7.2c-0.1,1.8,0,2.7,0,2.7s0.3-0.9,0.8-2.6c0.5-1.6,1.4-3.9,2.7-6.5    c1.3-2.5,3.1-5.3,5.7-7.4c1.3-1.1,2.7-1.8,4.2-2.3c1.7-0.5,3.3-0.6,5-0.4c1.7,0.2,3.4,0.7,4.9,1.5c1.6,0.8,3.1,1.7,4.4,2.8    c2.7,2.2,5,4.6,6.9,6.8c1.8,2.2,3.3,4.2,4.2,5.7c0.9,1.5,1.5,2.3,1.5,2.3s-0.3-1-0.8-2.6C314.6,224.5,314.2,223.3,313.6,222z"/><path fill="#FFF" d="M192.4,239.6c-4.9,20.8,0.7,39.9,12.6,42.7c11.8,2.8,25.4-11.8,30.3-32.5c4.9-20.8-0.7-39.9-12.6-42.7    C210.8,204.3,197.3,218.8,192.4,239.6z"/><ellipse cx="213.8" cy="247.7" fill="#84DBFF" rx="14.1" ry="15.6"/><ellipse cx="213.2" cy="249.9" fill="#324A5E" rx="9.5" ry="10.5"/><circle cx="219.2" cy="241.3" r="3.4" fill="#FFF"/><circle cx="214.5" cy="246" r="1.4" fill="#FFF"/><path fill="#324A5E" d="M198.4,222c-0.6,0.1-1.1,0.2-1.8,0.2c-2,0.1-3.9-0.6-3.9-0.6s1.9,0.2,3.7-0.4c0.9-0.3,1.7-0.6,2.3-0.9    c0.3-0.1,0.5-0.2,0.6-0.3c0.2-0.3,0.4-0.7,0.6-1c0.3-0.5,0.5-0.9,0.8-1.4c-0.5,0-0.9,0.1-1.4,0.1c-1.3,0-2.7-0.2-3.6-0.4    c-1-0.2-1.5-0.5-1.5-0.5s0.6,0.1,1.6,0c0.9,0,2.2-0.3,3.3-0.6c1.2-0.4,2.3-0.9,3.1-1.3c0.4-0.2,0.6-0.3,0.8-0.5    c0.5-0.6,1-1.2,1.5-1.8c-0.4,0-0.7,0.1-1.1,0.1c-2,0.1-4-0.1-5.4-0.4c-1.5-0.3-2.4-0.7-2.4-0.7s1,0.2,2.4,0.2    c1.4,0,3.3-0.2,5.2-0.7c1.8-0.4,3.4-1.1,4.7-1.7c2.6-2.1,5.9-3.9,9.6-4.4c2.2-0.3,4.6,0,6.6,0.6c2.2,0.7,4,2,5.5,3.4    c3,2.9,4.5,6.3,5.5,9.2c0.9,2.9,1.1,5.5,1.3,7.2c0.1,1.8,0,2.7,0,2.7s-0.3-0.9-0.8-2.6c-0.5-1.6-1.4-3.9-2.7-6.5    c-1.3-2.5-3.1-5.3-5.7-7.4c-1.3-1.1-2.7-1.8-4.2-2.3c-1.7-0.5-3.3-0.6-5-0.4c-1.7,0.2-3.4,0.7-4.9,1.5c-1.6,0.8-3.1,1.7-4.4,2.8    c-2.7,2.2-5,4.6-6.9,6.8c-1.8,2.2-3.3,4.2-4.2,5.7c-0.9,1.5-1.5,2.3-1.5,2.3s0.3-1,0.8-2.6C197.4,224.5,197.8,223.3,198.4,222z"/><path fill="#FFD05B" d="M390.4,292.7l10,4.5c-21.4-59.4-104.9-29-144.3-10.7c-39.5-18.4-122.9-48.8-144.3,10.7l10-4.5   c0,0-20.5,23.2-6.8,55.4l4.7-11.9c0,0-0.5,30.6,17.8,48.1l4.7-13c0,0-3.8,16,36.6,33c11.7,4.9,24.2,7.7,37,9.1   c5,0.6,11.4,1.8,18.4,4.3c14.1,5.1,29.7,5.1,43.8,0c7-2.5,13.4-3.7,18.4-4.3c12.7-1.4,25.3-4.2,37-9.1c40.4-17,36.6-33,36.6-33   l4.7,13c18.4-17.5,17.8-48.1,17.8-48.1l4.7,11.9C410.8,315.9,390.4,292.7,390.4,292.7z"/><path fill="#F1543F" d="M307.9 319c0 0-4.2 55-37.7 46.5C270.1 365.6 263.5 321.3 307.9 319zM204.1 319c0 0 4.2 55 37.7 46.5C241.9 365.6 248.5 321.3 204.1 319z"/><path fill="#FF7058" d="M292.8,308.4c-5.3-19.3-32.9-19.7-36.8-19.6c-3.8,0-31.5,0.3-36.8,19.6c0,0-47.6,2.2-11.3,21.9   c0,0,21.8,4.5,28.2,38.2c2.1,11,10.6,19.1,19.9,16.9c9.3,2.2,17.8-5.9,19.9-16.9c6.4-33.6,28.2-38.2,28.2-38.2   C340.4,310.6,292.8,308.4,292.8,308.4z"/><ellipse cx="265.5" cy="322.8" fill="#324A5E" rx="4.3" ry="9.8"/><ellipse cx="246.5" cy="322.8" fill="#324A5E" rx="4.3" ry="9.8"/><g><path fill="#F9B54C" d="M280 170.9c0 0 .8-.8 2.4-1.8.8-.5 1.9-1 3.1-1.5 1.3-.5 2.7-.9 4.4-1.2 1.7-.3 3.5-.5 5.4-.4 2-.1 4 .3 6.1.6 2 .6 4.2.9 6.2 1.9 1 .4 2 .9 3.1 1.3 1 .5 1.9 1.1 2.9 1.6.9.6 1.9 1.1 2.8 1.7l2.6 2c1.8 1.3 3.3 2.7 4.7 4.2 1.4 1.4 2.8 2.8 3.9 4.3 1.1 1.4 2.1 2.9 3.1 4.2 1 1.3 1.6 2.6 2.2 3.8.6 1.1 1.1 2.2 1.5 3 .8 1.7 1.2 2.7 1.2 2.7s-.9-.6-2.4-1.7c-.7-.6-1.6-1.2-2.6-2-1-.8-2-1.7-3.3-2.7-1.2-.9-2.5-1.9-3.9-3.1-1.3-1.2-2.9-2.1-4.3-3.3-.7-.6-1.5-1.1-2.2-1.7-.8-.5-1.6-1-2.4-1.6-1.6-1.1-3.2-2.2-4.9-3.1-1.6-1.1-3.3-1.9-5-2.7-1.7-.9-3.4-1.5-5-2.2-1.7-.4-3.3-1.2-4.9-1.5-1.6-.4-3.1-.7-4.6-.9-1.4-.1-2.8-.3-4-.3-1.2 0-2.3 0-3.2 0C281.1 170.8 280 170.9 280 170.9zM232 170.9c0 0-1.1-.2-2.9-.3-.9 0-2 0-3.2 0-1.2 0-2.6.2-4 .3-1.5.2-3 .5-4.6.9-1.6.3-3.2 1.1-4.9 1.5-1.6.7-3.4 1.3-5 2.2-1.7.8-3.4 1.6-5 2.7-1.7.9-3.3 2-4.9 3.1-.8.5-1.6 1.1-2.4 1.6-.8.6-1.5 1.2-2.2 1.7-1.4 1.2-3 2.1-4.3 3.3-1.3 1.1-2.6 2.1-3.9 3.1-1.2.9-2.3 1.9-3.3 2.7-1 .8-1.9 1.5-2.6 2-1.5 1.1-2.4 1.7-2.4 1.7s.4-1 1.2-2.7c.4-.8.9-1.9 1.5-3 .6-1.1 1.3-2.5 2.2-3.8.9-1.3 1.9-2.7 3.1-4.2 1.1-1.5 2.5-2.9 3.9-4.3 1.4-1.5 2.9-3 4.7-4.2l2.6-2c.9-.6 1.9-1.2 2.8-1.7 1-.5 1.9-1.1 2.9-1.6 1-.4 2-.9 3.1-1.3 2-1 4.2-1.3 6.2-1.9 2.1-.3 4.1-.7 6.1-.6 1.9-.1 3.8.1 5.4.4 1.7.3 3.1.7 4.4 1.2 1.3.4 2.3 1 3.1 1.5C231.2 170.2 232 170.9 232 170.9z"/></g><g><path fill="#FFD05B" d="M252.2,122.2c0,0,0-0.2,0-0.5c0-0.2,0.1-0.7,0.1-1.3c0-1.2,0-3-0.3-5.1c-0.3-2.1-0.9-4.6-1.8-7.2     c-0.9-2.6-2.2-5.2-3.9-7.7c-0.8-1.3-1.8-2.4-2.7-3.6c-1-1.1-2-2.1-3-3.2c-1.1-0.9-2.1-1.8-3.1-2.7c-1-0.9-2.1-1.5-3.1-2.1     c-1.9-1.4-3.7-2.2-4.9-2.8c-1.2-0.6-1.9-1-1.9-1s0.7,0.3,2,0.7c1.3,0.5,3.2,1,5.3,2.1c1.1,0.5,2.3,1,3.5,1.7     c1.2,0.7,2.4,1.5,3.7,2.3c1.2,0.9,2.5,1.8,3.7,2.9c1.1,1.1,2.4,2.2,3.5,3.4c2.2,2.4,4.2,5.2,5.7,7.9c1.5,2.8,2.6,5.5,3.4,7.9     c0.8,2.4,1.2,4.6,1.4,6.1c0.1,0.8,0.2,1.4,0.2,1.9c0,0.4,0,0.6,0,0.6L252.2,122.2z"/></g></svg>