<svg xmlns="http://www.w3.org/2000/svg" enable-background="new 0 0 512 512" viewBox="0 0 512 512"><circle cx="256" cy="256" r="252.5" fill="#84DBFF"/><path fill="#FFF" d="M392.4,181.5l17.8,15.5C383.9,100.9,278.4,95.2,256,95c-22.4,0.1-127.9,5.9-154.1,102l17.8-15.5    c0,0-30.7,57-17.8,108.3l8.9-19c0,0-12.3,88.1,47.8,123.8l-0.7-25.9c0,0,22.7,26.4,98.1,56.9c75.5-30.5,98.1-56.9,98.1-56.9    l-0.7,25.9c60.1-35.7,47.8-123.8,47.8-123.8l8.9,19C423.1,238.5,392.4,181.5,392.4,181.5z"/><path fill="#E6E9EE" d="M369.8 246.2c-3.2-29.3-27.3-52.7-56.7-55.3-11.8-1-23 1.3-32.8 6-15.3 7.4-33.4 7.4-48.6 0-9.8-4.8-21-7-32.8-6-29.4 2.5-53.4 26-56.7 55.3-3.7 33.7 19.3 62.7 50.5 68.6-7.2 18-11.3 36.7-11.3 51.2 0 41.2 33.4 74.6 74.6 74.6 41.2 0 74.6-33.4 74.6-74.6 0-14.5-4.2-33.2-11.3-51.2C350.5 308.9 373.5 279.9 369.8 246.2zM427.9 191.2c-10.3 8.3-22.5 12.4-34.2 12.6-.7-1.9-1.4-3.9-2.3-5.9-3.4-7.7-8.5-16.2-15.1-24.4-6.6-8.2-13.7-15.1-20.5-20.1-1.8-1.3-3.5-2.5-5.2-3.6 2.7-11.3 9.5-22.3 19.9-30.5 22.6-18 53.8-16.6 69.7 3.3C456 142.5 450.5 173.2 427.9 191.2z"/><path fill="#CED5E0" d="M406.8,190.2c-4.8,3.8-10.1,6.4-15.5,7.7c-3.4-7.7-8.5-16.2-15.1-24.4c-6.6-8.2-13.7-15.1-20.5-20.1    c2.5-5,6.2-9.6,10.9-13.4c15.8-12.6,37.5-11.6,48.6,2.3C426.4,156.2,422.6,177.7,406.8,190.2z"/><path fill="#E6E9EE" d="M84.1,191.2c10.3,8.3,22.5,12.4,34.2,12.6c0.7-1.9,1.4-3.9,2.3-5.9c3.4-7.7,8.5-16.2,15.1-24.4    c6.6-8.2,13.7-15.1,20.5-20.1c1.8-1.3,3.5-2.5,5.2-3.6c-2.7-11.3-9.5-22.3-19.9-30.5c-22.6-18-53.8-16.6-69.7,3.3    C56,142.5,61.5,173.2,84.1,191.2z"/><path fill="#CED5E0" d="M105.2,190.2c4.8,3.8,10.1,6.4,15.5,7.7c3.4-7.7,8.5-16.2,15.1-24.4c6.6-8.2,13.7-15.1,20.5-20.1    c-2.5-5-6.2-9.6-10.9-13.4c-15.8-12.6-37.5-11.6-48.6,2.3C85.6,156.2,89.4,177.7,105.2,190.2z"/><circle cx="308.7" cy="254.5" r="21.3" fill="#324A5E"/><ellipse cx="301.5" cy="248.4" fill="#FFF" rx="5.7" ry="4.7" transform="rotate(-37.608 301.516 248.41)"/><circle cx="200.6" cy="254.5" r="21.3" fill="#324A5E"/><ellipse cx="193.5" cy="248.4" fill="#FFF" rx="5.7" ry="4.7" transform="rotate(-37.606 193.474 248.445)"/><path fill="#324A5E" d="M273.9 337.2c-6.7 7.3-8.5 4.7-11.3 2.1-2.8-2.6-5.6-4.1 1.1-11.4s20.2-17.6 23.1-15C289.6 315.4 280.6 329.9 273.9 337.2zM238.1 337.2c6.7 7.3 8.5 4.7 11.3 2.1 2.8-2.6 5.6-4.1-1.1-11.4-6.7-7.3-20.2-17.6-23.1-15C222.4 315.4 231.4 329.9 238.1 337.2zM303.6 378.1c-7.9 18.5-26.2 31.4-47.6 31.4-21.4 0-39.7-12.9-47.6-31.4 13.7 5.3 30 8.4 47.6 8.4S289.9 383.4 303.6 378.1z"/></svg>