<svg xmlns="http://www.w3.org/2000/svg" viewBox="0 0 48 48">
	<circle cx="24" cy="24" r="24" fill="#E4BAAB" />
	<path fill="#393A58" d="M37.628 32.926c1.821 3.188 2.25 6.369.954 7.109-1.287.735-3.809-1.25-5.63-4.438-1.821-3.188-2.256-6.378-.969-7.113 1.296-.74 3.824 1.254 5.645 4.442zM10.375 32.926c-1.821 3.188-2.25 6.369-.954 7.109 1.287.735 3.809-1.25 5.63-4.438 1.821-3.188 2.256-6.378.969-7.113-1.296-.74-3.824 1.254-5.645 4.442zM31.54 41.096v5.68c-.6.21-1.22.39-1.84.54-.29.06-.57.15-.83.29v-6.51h2.67zM19.13 41.096v6.4c-.91-.18-1.8-.42-2.67-.72v-5.68h2.67z" />
	<path fill="#282941" d="M16.458 41.099h2.665v3.859a11.764 11.764 0 0 1-2.665-1.515v-2.344zM31.542 41.099v2.355a12.663 12.663 0 0 1-2.665 1.515v-3.871h2.665zM18.526 22.395h10.948v5.529H18.526z" />
	<path fill="#EDEDED" d="M32.663 8.498c-.725-3.415-2.331-5.536-4.191-5.536-2.224 0-4.047 3.1-4.472 7.387h.894c.392-3.681 1.887-6.497 3.578-6.497 1.373 0 2.708 1.942 3.321 4.831a.446.446 0 0 0 .87-.185z" />
	<path fill="#8D61BA" d="M34.081 8.86a1.795 1.795 0 0 1-1.804 1.804 1.793 1.793 0 0 1-1.792-1.804 1.79 1.79 0 0 1 1.792-1.792c1.003 0 1.804.801 1.804 1.792z" />
	<path fill="#7B4CA6" d="M33.992 8.314c-1.355-1.407-3.647.048-3.024 1.792a1.875 1.875 0 0 1-.483-1.245 1.79 1.79 0 0 1 1.792-1.792 1.783 1.783 0 0 1 1.715 1.245z" />
	<path fill="#393A58" d="M39.973 24.706a.63.63 0 0 1-.635.674H8.662a.63.63 0 0 1-.635-.674C8.7 16.459 15.588 9.978 24 9.978s15.3 6.481 15.973 14.728z" />
	<path fill="#282941" d="M36.39 15.849a15.943 15.943 0 0 0-11.386-4.753c-8.26 0-15.058 6.239-15.935 14.283h-.407a.63.63 0 0 1-.635-.674C9.2 10.348 27.302 4.755 36.39 15.849z" />
	<circle cx="16.984" cy="19.109" r="3.412" fill="#FFF" />
	<circle cx="16.984" cy="19.109" r="1.771" fill="#ED7167" />
	<circle cx="31.016" cy="19.109" r="3.412" fill="#FFF" />
	<circle cx="31.016" cy="19.109" r="1.771" fill="#ED7167" />
	<path fill="#D9D9D9" d="M36.12 33.037c0 7.111-6.115 12.784-13.37 12.054-5.242-.52-9.621-4.512-10.639-9.676-.476-2.466-.188-4.811.652-6.879.144-.376.52-.608.929-.608h20.613c.409 0 .785.232.929.608.566 1.394.886 2.909.886 4.501z" />
	<path fill="#D9D9D9" d="M36.12 33.037a12.11 12.11 0 0 1-13.37 12.054c-5.252-.53-9.616-4.522-10.639-9.676-.476-2.466-.188-4.811.652-6.879.144-.376.52-.608.929-.608h20.613c.409 0 .785.232.929.608.566 1.394.886 2.909.886 4.501z" />
	<path fill="#EDEDED" d="M32.194 41.973c-2.433 2.234-5.795 3.484-9.444 3.119a12.063 12.063 0 0 1-6.934-3.13c-.51-3.568 3.199-8.963 9.035-8.371 4.169.416 7.503 4.075 7.343 8.382z" />
	<path fill="#ED7167" d="M24.003 36.244a3.715 3.715 0 0 0-3.716 3.705 3.717 3.717 0 0 0 7.432 0 3.715 3.715 0 0 0-3.716-3.705z" />
</svg>
