<svg xmlns="http://www.w3.org/2000/svg" viewBox="0 0 48 48">
	<circle cx="24" cy="24" r="24" fill="#54BB6C" />
	<path fill="#EDEDED" d="M31.083 36.436v10.5c-.15.05-.3.09-.46.13h-2.27v-10.63h2.73z" />
	<path fill="#393A58" d="M32.303 46.526c-.4.15-.81.28-1.22.41-.15.05-.3.09-.46.13-1.23.36-2.5.61-3.8.76a.605.605 0 0 1-.07-.54c.27-.81.85-1.47 1.6-1.83.42-.21.88-.32 1.37-.32.49 0 .95.11 1.36.31.5.24.92.62 1.22 1.08z" />
	<path fill="#EDEDED" d="M19.643 36.436v10.63h-2.26c-.16-.04-.31-.08-.47-.14v-10.49h2.73z" />
	<path fill="#393A58" d="M21.183 47.826c-1.3-.15-2.57-.4-3.8-.76-.16-.04-.31-.08-.47-.14-.41-.12-.82-.26-1.22-.4.3-.46.73-.83 1.22-1.07.42-.21.88-.32 1.37-.32s.95.11 1.36.31c.76.36 1.34 1.02 1.6 1.84.07.19.04.38-.06.54z" />
	<path fill="#D9D9D9" d="M16.916 36.431h2.733v6.505c-1.038-.668-1.957-1.552-2.733-2.614v-3.891zM31.084 36.431v3.891c-.764 1.062-1.683 1.946-2.722 2.602v-6.493h2.722z" />
	<path fill="#DE564E" d="M27.254 8.098A3.253 3.253 0 0 1 24 11.352a3.253 3.253 0 0 1-3.254-3.254A3.26 3.26 0 0 1 24 4.835a3.26 3.26 0 0 1 3.254 3.263z" />
	<path fill="#EDEDED" d="M37.392 24.396h.877v7.833h-.877zM35.114 20.828h1.967v2.805h-1.967z" />
	<path fill="#393A58" d="M38.987 20.668v4.263a1.157 1.157 0 1 1-2.316 0v-4.263a1.157 1.157 0 1 1 2.316 0z" />
	<path fill="#DE564E" d="M39.752 33.378c0 .711-.386 1.333-.965 1.658v-1.842h-1.912v1.842a1.906 1.906 0 0 1-.956-1.658c0-1.053.86-1.912 1.912-1.912s1.921.859 1.921 1.912z" />
	<path fill="#EDEDED" d="M9.73 24.396h.877v7.833H9.73zM10.919 20.828h1.967v2.805h-1.967z" />
	<path fill="#393A58" d="M9.013 20.668v4.263a1.157 1.157 0 1 0 2.316 0v-4.263c0-.64-.517-1.158-1.158-1.158-.641 0-1.158.517-1.158 1.158z" />
	<path fill="#DE564E" d="M8.248 33.378c0 .711.386 1.333.965 1.658v-1.842h1.912v1.842c.57-.325.956-.947.956-1.658 0-1.053-.86-1.912-1.912-1.912s-1.921.859-1.921 1.912z" />
	<path fill="#F8D270" d="M36.713 12.352c0 .868-.693 1.561-1.553 1.561a1.554 1.554 0 0 1-1.561-1.561c0-.86.693-1.553 1.561-1.553.86.001 1.553.694 1.553 1.553zM14.404 12.352c0 .868-.693 1.561-1.553 1.561a1.554 1.554 0 0 1-1.561-1.561c0-.86.693-1.553 1.561-1.553.86.001 1.553.694 1.553 1.553z" />
	<path fill="#393A58" d="M32.936 32.912c-.271 5.873-4.165 10.535-8.932 10.535-4.774 0-8.667-4.662-8.939-10.535a.506.506 0 0 1 .503-.516h16.865a.501.501 0 0 1 .503.516z" />
	<path fill="#D9D9D9" d="M35.837 20.196c-.36 7.78-5.517 13.955-11.833 13.955-6.324 0-11.482-6.175-11.842-13.955a.67.67 0 0 1 .667-.684H35.17c.378 0 .685.316.667.684z" />
	<path fill="#393A58" d="M23.487 34.132c-6.087-.325-10.973-6.368-11.324-13.938a.67.67 0 0 1 .667-.684h1.412c-.325 0-.597.316-.579.684.298 7.535 4.535 13.57 9.824 13.938z" opacity=".2" />
	<path fill="#FFF" d="M35.837 20.194c-.351 7.57-5.237 13.613-11.315 13.938 5.281-.368 9.517-6.403 9.815-13.938.018-.369-.246-.684-.579-.684h1.412c.378 0 .685.316.667.684z" opacity=".3" />
	<path fill="#EDEDED" d="M35.156 11.672v.933a6.905 6.905 0 0 1-6.907 6.907h-8.49a6.911 6.911 0 0 1-6.914-6.907v-.933a4.67 4.67 0 0 1 4.674-4.667h12.97a4.669 4.669 0 0 1 4.667 4.667z" />
	<path fill="#D9D9D9" d="M33.747 8.327a4.64 4.64 0 0 0-2.352-.635h-12.97c-2.584 0-4.682 2.091-4.682 4.667v.933a6.88 6.88 0 0 0 2.27 5.115 6.891 6.891 0 0 1-3.166-5.802v-.933a4.67 4.67 0 0 1 4.674-4.667h12.97c1.262 0 2.42.508 3.256 1.322z" />
	<path fill="#FFF" d="M33.083 13.259a3.936 3.936 0 0 1-3.934 3.934 3.935 3.935 0 0 1 0-7.868 3.94 3.94 0 0 1 3.934 3.934z" />
	<path fill="#393A58" d="M32.714 13.259a3.566 3.566 0 0 1-7.13 0 3.566 3.566 0 0 1 3.565-3.565 3.57 3.57 0 0 1 3.565 3.565z" />
	<circle cx="29.149" cy="13.259" r="1.759" fill="#3BB5C5" />
	<circle cx="30.278" cy="12.13" r=".63" fill="#FFF" />
	<path fill="#FFF" d="M22.785 13.259a3.936 3.936 0 0 1-3.934 3.934 3.931 3.931 0 0 1-3.934-3.934 3.936 3.936 0 0 1 3.934-3.934 3.94 3.94 0 0 1 3.934 3.934z" />
	<path fill="#393A58" d="M22.416 13.259a3.566 3.566 0 0 1-7.13 0 3.566 3.566 0 0 1 3.565-3.565 3.57 3.57 0 0 1 3.565 3.565z" />
	<circle cx="18.851" cy="13.259" r="1.759" fill="#3BB5C5" />
	<circle cx="19.98" cy="12.13" r=".63" fill="#FFF" />
	<path fill="#DE564E" d="M28.167 26.832a4.166 4.166 0 0 1-4.175 4.166 4.158 4.158 0 0 1-4.158-4.166 4.163 4.163 0 0 1 4.158-4.166 4.172 4.172 0 0 1 4.175 4.166z" />
	<path fill="#FFF" d="M25.073 24.706v1.54c0 .02 0 .06-.01.08.18.23.28.51.28.82 0 .74-.6 1.35-1.35 1.35a1.349 1.349 0 0 1-1.06-2.17c-.01-.02-.01-.06-.01-.08v-1.54c-.93.41-1.59 1.35-1.59 2.44a2.665 2.665 0 0 0 5.33 0c0-1.08-.66-2.02-1.59-2.44z" />
	<path fill="#FFF" d="M24.632 24.257v1.985a.633.633 0 0 1-1.264 0v-1.985c0-.343.29-.624.632-.624.351 0 .632.281.632.624z" />
</svg>
