<svg xmlns="http://www.w3.org/2000/svg" viewBox="0 0 48 48">
	<circle cx="24" cy="24" r="24" fill="#7B4CA6" />
	<path fill="#EDEDED" d="M23.762 5.341h.476v9.607h-.476z" />
	<path fill="#F8D270" d="M24.895 4.954A.89.89 0 0 0 24 4.073a.89.89 0 0 0-.895.881c0 .49.406.895.895.895.49 0 .895-.406.895-.895z" />
	<path fill="#EDEDED" d="M26.904 12.037a.024.024 0 0 0-.007.018v2.893h-.476v-2.991l.077-.186.937-.937a.024.024 0 0 0 .007-.018V8.639c0-.132.106-.238.238-.238s.238.106.238.238v2.275l-.077.186-.937.937z" />
	<path fill="#F8D270" d="M28.634 8.729a.89.89 0 0 0-.895-.881c-.49 0-.895.392-.895.881s.406.895.895.895a.902.902 0 0 0 .895-.895z" />
	<path fill="#EDEDED" d="M30.088 11.592v3.356h-.476v-3.455c0-.063.025-.124.07-.168l.952-.952v-2.98c0-.132.106-.238.238-.238s.238.106.238.238v3.079a.235.235 0 0 1-.07.168l-.952.952z" />
	<path fill="#F8D270" d="M31.753 7.482a.89.89 0 0 0-.895-.881.89.89 0 0 0-.895.881c0 .49.406.895.895.895a.9.9 0 0 0 .895-.895z" />
	<path fill="#EDEDED" d="M21.103 12.446v2.903h.476v-3.002a.235.235 0 0 0-.07-.168l-.952-.952V9.04a.237.237 0 0 0-.238-.238.237.237 0 0 0-.238.238v2.285c0 .063.025.124.07.168l.952.953z" />
	<path fill="#F8D270" d="M19.366 9.13a.89.89 0 0 1 .895-.881c.49 0 .895.392.895.881s-.406.895-.895.895a.901.901 0 0 1-.895-.895z" />
	<path fill="#EDEDED" d="M17.912 11.993v3.356h.476v-3.455a.235.235 0 0 0-.07-.168l-.952-.952v-2.98a.237.237 0 0 0-.238-.238.237.237 0 0 0-.238.238v3.079c0 .063.025.124.07.168l.952.952z" />
	<path fill="#F8D270" d="M16.247 7.883a.89.89 0 0 1 .895-.881.89.89 0 0 1 .895.881c0 .49-.406.895-.895.895a.9.9 0 0 1-.895-.895z" />
	<path fill="#EDEDED" d="M23.762 33.052h.476v9.607h-.476z" />
	<path fill="#F8D270" d="M23.105 43.046c0 .49.406.881.895.881a.89.89 0 0 0 .895-.881.901.901 0 0 0-.895-.895.901.901 0 0 0-.895.895z" />
	<path fill="#EDEDED" d="M21.096 35.963a.024.024 0 0 0 .007-.018v-2.893h.476v2.991l-.077.186-.937.937a.024.024 0 0 0-.007.018v2.177a.237.237 0 0 1-.238.238.237.237 0 0 1-.238-.238v-2.275l.077-.186.937-.937z" />
	<path fill="#F8D270" d="M19.366 39.271c0 .49.406.881.895.881a.89.89 0 0 0 .895-.881.902.902 0 0 0-.895-.895.902.902 0 0 0-.895.895z" />
	<path fill="#EDEDED" d="M17.912 36.408v-3.356h.476v3.455a.235.235 0 0 1-.07.168l-.952.952v2.981a.237.237 0 0 1-.238.238.237.237 0 0 1-.238-.238v-3.079c0-.063.025-.124.07-.168l.952-.953z" />
	<path fill="#F8D270" d="M16.247 40.518c0 .49.406.881.895.881a.89.89 0 0 0 .895-.881.901.901 0 0 0-.895-.895.9.9 0 0 0-.895.895z" />
	<path fill="#EDEDED" d="M26.897 35.554v-2.903h-.476v3.002c0 .063.025.124.07.168l.952.952v2.187c0 .132.106.238.238.238a.237.237 0 0 0 .238-.238v-2.285a.235.235 0 0 0-.07-.168l-.952-.953z" />
	<path fill="#F8D270" d="M28.634 38.87a.89.89 0 0 1-.895.881.89.89 0 0 1-.895-.881c0-.49.406-.895.895-.895s.895.405.895.895z" />
	<path fill="#EDEDED" d="M30.088 36.007v-3.356h-.476v3.455c0 .063.025.124.07.168l.952.952v2.981c0 .132.106.238.238.238a.237.237 0 0 0 .238-.238v-3.079a.235.235 0 0 0-.07-.168l-.952-.953z" />
	<path fill="#F8D270" d="M31.753 40.117a.89.89 0 0 1-.895.881.89.89 0 0 1-.895-.881c0-.49.406-.895.895-.895a.9.9 0 0 1 .895.895z" />
	<path fill="#EDEDED" d="M33.052 23.762h9.607v.476h-9.607z" />
	<path fill="#F8D270" d="M43.046 24.895a.89.89 0 0 0 .881-.895c0-.49-.392-.895-.881-.895s-.895.405-.895.895.406.895.895.895z" />
	<path fill="#EDEDED" d="M35.963 26.904a.024.024 0 0 0-.018-.007h-2.893v-.476h2.991l.186.077.937.937a.024.024 0 0 0 .018.007h2.177c.132 0 .238.106.238.238a.237.237 0 0 1-.238.238h-2.275l-.186-.077-.937-.937z" />
	<path fill="#F8D270" d="M39.271 28.634a.89.89 0 0 0 .881-.895.89.89 0 0 0-.881-.895.901.901 0 0 0-.895.895c0 .489.406.895.895.895z" />
	<path fill="#EDEDED" d="M36.408 30.088h-3.356v-.476h3.455c.063 0 .124.025.168.07l.952.952h2.981c.132 0 .238.106.238.238a.237.237 0 0 1-.238.238h-3.079a.235.235 0 0 1-.168-.07l-.953-.952z" />
	<path fill="#F8D270" d="M40.518 31.754a.89.89 0 0 0 .881-.895c0-.49-.392-.895-.881-.895s-.895.406-.895.895.405.895.895.895z" />
	<path fill="#EDEDED" d="M35.554 21.103h-2.903v.476h3.002a.235.235 0 0 0 .168-.07l.952-.952h2.187c.132 0 .238-.106.238-.238s-.106-.238-.238-.238h-2.285a.235.235 0 0 0-.168.07l-.953.952z" />
	<path fill="#F8D270" d="M38.87 19.366a.89.89 0 0 1 .881.895.89.89 0 0 1-.881.895.901.901 0 0 1-.895-.895c0-.489.405-.895.895-.895z" />
	<path fill="#EDEDED" d="M36.007 17.911h-3.356v.476h3.455a.235.235 0 0 0 .168-.07l.952-.952h2.981a.237.237 0 0 0 .238-.238.237.237 0 0 0-.238-.238h-3.079a.235.235 0 0 0-.168.07l-.953.952z" />
	<path fill="#F8D270" d="M40.117 16.246a.89.89 0 0 1 .881.895c0 .49-.392.895-.881.895s-.895-.406-.895-.895a.9.9 0 0 1 .895-.895z" />
	<path fill="#EDEDED" d="M5.34 23.762h9.607v.476H5.34z" />
	<path fill="#F8D270" d="M4.954 23.105a.89.89 0 0 0-.881.895c0 .49.392.895.881.895s.895-.405.895-.895a.901.901 0 0 0-.895-.895z" />
	<path fill="#EDEDED" d="M12.037 21.096a.024.024 0 0 0 .018.007h2.893v.476h-2.991l-.186-.077-.937-.937a.024.024 0 0 0-.018-.007H8.639c-.132 0-.238-.106-.238-.238s.106-.238.238-.238h2.275l.186.077.937.937z" />
	<path fill="#F8D270" d="M8.729 19.366a.89.89 0 0 0-.881.895c0 .49.392.895.881.895.49 0 .895-.406.895-.895a.901.901 0 0 0-.895-.895z" />
	<path fill="#EDEDED" d="M11.592 17.911h3.356v.476h-3.455a.235.235 0 0 1-.168-.07l-.952-.952h-2.98a.237.237 0 0 1-.238-.238c0-.132.106-.238.238-.238h3.079c.063 0 .124.025.168.07l.952.952z" />
	<path fill="#F8D270" d="M7.482 16.246a.89.89 0 0 0-.881.895c0 .49.392.895.881.895s.895-.406.895-.895a.901.901 0 0 0-.895-.895z" />
	<path fill="#EDEDED" d="M12.446 26.897h2.903v-.476h-3.002a.235.235 0 0 0-.168.07l-.952.952H9.04a.237.237 0 0 0-.238.238c0 .132.106.238.238.238h2.286a.235.235 0 0 0 .168-.07l.952-.952z" />
	<path fill="#F8D270" d="M9.13 28.634a.89.89 0 0 1-.881-.895.89.89 0 0 1 .881-.895c.49 0 .895.406.895.895a.901.901 0 0 1-.895.895z" />
	<path fill="#EDEDED" d="M11.993 30.088h3.356v-.476h-3.455a.235.235 0 0 0-.168.07l-.952.952h-2.98a.237.237 0 0 0-.238.238c0 .132.106.238.238.238h3.079a.235.235 0 0 0 .168-.07l.952-.952z" />
	<path fill="#F8D270" d="M7.883 31.754a.89.89 0 0 1-.881-.895c0-.49.392-.895.881-.895s.895.406.895.895a.9.9 0 0 1-.895.895z" />
	<path fill="#DE564E" d="M33.855 16.276v15.448a2.13 2.13 0 0 1-2.131 2.131H16.276a2.124 2.124 0 0 1-2.131-2.131V16.276a2.13 2.13 0 0 1 2.131-2.131h15.448c1.172 0 2.131.959 2.131 2.131z" />
	<path fill="#EDEDED" d="M16.276 16.276h15.448v15.448H16.276z" />
	<path fill="#3BB5C5" d="M25.189 21.477v1.784h-2.374v-1.784a1.188 1.188 0 0 1 2.374 0z" />
	<path fill="#2FA6AE" d="M25.056 20.931c-.253-.252-.501-.409-.895-.409-.655 0-1.19.529-1.19 1.184v1.555h-.158v-1.784a1.188 1.188 0 0 1 2.243-.546z" />
	<path fill="#393A58" d="m26.31 22.725.922-4.203.448.098-.92 4.204z" />
	<circle cx="27.486" cy="18.433" r=".768" fill="#E67DC1" />
	<path fill="#D666BA" d="M28.152 18.047c-.647-.591-1.617.166-1.191.946a.768.768 0 1 1 1.191-.946z" />
	<path fill="#393A58" d="m21.24 22.822-.92-4.203.448-.099.921 4.204z" />
	<circle cx="20.517" cy="18.433" r=".768" fill="#E67DC1" />
	<path fill="#D666BA" d="M19.85 18.047c.647-.591 1.617.166 1.191.946a.768.768 0 1 0-1.191-.946z" />
	<path fill="#393A58" d="M30.388 22.918v5.407a.908.908 0 0 1-.906.911H18.52a.908.908 0 0 1-.906-.911v-5.407c0-.502.404-.911.906-.911h10.962a.908.908 0 0 1 .906.911z" />
	<path fill="#282941" d="M30.353 22.683a.89.89 0 0 0-.36-.076H19.031a.908.908 0 0 0-.906.911v5.407a.84.84 0 0 0 .033.235.902.902 0 0 1-.546-.835v-5.407c0-.502.404-.911.906-.911H29.48a.9.9 0 0 1 .873.676z" />
	<path fill="#FFF" d="M28.025 24.642c0 .641-.521 1.162-1.162 1.162a1.158 1.158 0 1 1 0-2.319 1.16 1.16 0 0 1 1.162 1.157z" />
	<circle cx="26.866" cy="24.644" r=".602" fill="#282941" />
	<path fill="#FFF" d="M22.296 24.642c0 .641-.521 1.162-1.162 1.162a1.158 1.158 0 1 1 0-2.319 1.16 1.16 0 0 1 1.162 1.157z" />
	<circle cx="21.136" cy="24.644" r=".602" fill="#282941" />
	<path fill="#EDEDED" d="M25.87 27.757a.515.515 0 0 1-.517.518h-2.705a.509.509 0 0 1-.517-.518c0-.283.225-.518.517-.518h2.705a.52.52 0 0 1 .517.518z" />
</svg>
