<svg xmlns="http://www.w3.org/2000/svg" viewBox="0 0 48 48">
	<path fill="#3BB5C5" d="M24 .002c-13.255 0-24 10.745-24 24 0 11.154 7.61 20.53 17.921 23.222a1.193 1.193 0 0 1 1.159-.843c2.906-.057 5.813.622 8.66-.204.935-.271 1.547.476 1.571 1.229C40.009 44.987 48 35.431 48 24.002c0-13.255-10.745-24-24-24z" />
	<path fill="#393A58" d="M36.655 13.109v4.924a.617.617 0 0 1-.611.611h-1.513a.618.618 0 0 1-.611-.611v-4.924c0-.333.279-.601.611-.601h1.513a.61.61 0 0 1 .611.601zM14.08 13.109v4.924a.617.617 0 0 1-.611.611h-1.513a.618.618 0 0 1-.611-.611v-4.924c0-.333.279-.601.611-.601h1.513a.61.61 0 0 1 .611.601z" />
	<path fill="#ED7167" d="M21.007 8.463a2.981 2.981 0 0 1-2.982 2.972 2.971 2.971 0 1 1 0-5.944 2.981 2.981 0 0 1 2.982 2.972z" />
	<path fill="#ED7167" d="M26.977 8.463a2.981 2.981 0 0 1-2.982 2.972 2.971 2.971 0 1 1 0-5.944 2.981 2.981 0 0 1 2.982 2.972z" />
	<path fill="#ED7167" d="M32.948 8.463a2.981 2.981 0 0 1-2.982 2.972 2.971 2.971 0 1 1 0-5.944 2.981 2.981 0 0 1 2.982 2.972z" />
	<path fill="#EDEDED" d="m32.89 31.328-.37 1.87-.22 1.11-2.56 13c-1.84.45-3.76.69-5.74.69-2.12 0-4.17-.27-6.12-.79l-2.55-12.9-.22-1.11-.37-1.87h18.15z" />
	<path fill="#E67DC1" d="M27.723 34.726v7.531c0 2.06-1.663 3.733-3.723 3.733s-3.723-1.674-3.723-3.733v-7.531h7.446z" />
	<path fill="#D9D9D9" d="M12.461 27.213c.248 6.055 5.228 10.91 11.357 10.91s11.108-4.855 11.357-10.91H12.461z" />
	<path fill="#282941" d="M21.538 20.951h4.924v7.424h-4.924z" />
	<path fill="#EDEDED" d="M33.862 23.883a55.675 55.675 0 0 0-19.725 0c-.788.147-1.425-.362-1.425-1.162V8.432c-.001-.799.637-1.308 1.425-1.161a55.675 55.675 0 0 0 19.725 0c.789-.147 1.425.362 1.425 1.161v14.289c.001.799-.636 1.308-1.425 1.162z" />
	<path fill="#D9D9D9" d="M35.29 8.428v.03c-.1 0-.21.01-.32.03a55.89 55.89 0 0 1-19.73 0c-.78-.15-1.42.36-1.42 1.16v14.26c-.64-.03-1.11-.5-1.11-1.19V8.428c0-.79.64-1.3 1.43-1.16 6.52 1.18 13.2 1.18 19.72 0 .79-.14 1.43.37 1.43 1.16z" />
	<path fill="#282941" d="M9.572 29.045c-.002.049-.015.096-.015.146a4.01 4.01 0 0 0 4.003 4.012h20.871a4.011 4.011 0 0 0 4.012-4.012c0-.05-.013-.096-.015-.146H9.572z" />
	<path fill="#F8D270" d="M38.437 29.135a4.006 4.006 0 0 0-4.006-3.946H13.56a3.99 3.99 0 0 0-3.997 3.946h28.874z" />
	<path fill="#393A58" d="M32.486 15.418a3.185 3.185 0 0 1-3.193 3.184 3.184 3.184 0 0 1-3.185-3.184 3.191 3.191 0 0 1 3.185-3.193 3.192 3.192 0 0 1 3.193 3.193z" />
	<path fill="#F8D270" d="M30.87 15.415c0 .868-.703 1.571-1.575 1.571a1.574 1.574 0 0 1 0-3.146 1.576 1.576 0 0 1 1.575 1.575z" />
	<path fill="#D9D9D9" d="M32.661 11.92a.565.565 0 0 1-.434.677l-5.627 1.23a.563.563 0 0 1-.241-1.102l5.627-1.23a.564.564 0 0 1 .675.425z" />
	<path fill="#393A58" d="M15.514 15.418a3.185 3.185 0 0 0 3.193 3.184 3.183 3.183 0 0 0 3.184-3.184 3.191 3.191 0 0 0-3.184-3.193 3.192 3.192 0 0 0-3.193 3.193z" />
	<path fill="#F8D270" d="M17.13 15.415c0 .868.703 1.571 1.575 1.571a1.574 1.574 0 0 0 0-3.146 1.576 1.576 0 0 0-1.575 1.575z" />
	<path fill="#D9D9D9" d="M15.339 11.92a.565.565 0 0 0 .434.677l5.627 1.23a.563.563 0 0 0 .241-1.102l-5.627-1.23a.564.564 0 0 0-.675.425z" />
	<path fill="#ED7167" d="M27.96 21.856c-.029.116-7.902.07-7.92 0a.078.078 0 0 1 .01-.101c.949-1.273 2.384-2 3.95-2s3 .727 3.95 2c.03.03.03.071.01.101z" />
	<path fill="#D9D9D9" d="M25.106 18.218a1.106 1.106 0 0 1-2.213 0c0-.615.497-2.359 1.113-2.359.603 0 1.1 1.744 1.1 2.359z" />
</svg>
