<svg xmlns="http://www.w3.org/2000/svg" viewBox="0 0 512 512">
	<circle cx="256" cy="256" r="256" fill="#e88032" />
	<path fill="#cc6e2e" d="M484.77,371A257.06,257.06,0,0,1,388.9,474.84q-5,3-10.15,5.86a256.56,256.56,0,0,1-219.18,12.51q-10.59-4.31-20.68-9.52-7.69-4-15.08-8.42l0,0A257.19,257.19,0,0,1,27.23,371a257.75,257.75,0,0,1,54.08-72.14l.13-.12c2-1.82,4-3.62,6-5.37q7.2-6.31,14.85-12.07,5.4-4.07,11-7.85,4.59-3.07,9.33-6s0,0,0,0l1-.6h0a255.83,255.83,0,0,1,33-16.84c1-.44,2.08-.87,3.12-1.29q4.18-1.69,8.45-3.26h0a252.53,252.53,0,0,1,27-8.19c1.64-.4,3.29-.79,4.95-1.15q8.85-2,17.93-3.33a258.67,258.67,0,0,1,72.3-.51q9.78,1.31,19.32,3.35a251.31,251.31,0,0,1,34.85,10.08,254.65,254.65,0,0,1,44.61,21.57l.61.38q4.35,2.65,8.58,5.5,5.61,3.75,11,7.8,5.78,4.32,11.29,9,5.16,4.33,10.09,8.93l.18.17a253.46,253.46,0,0,1,20.05,21l1.3,1.53q2.36,2.81,4.61,5.67A255,255,0,0,1,484.77,371Z" />
	<path fill="#fff" d="M378.75,480.7a256.56,256.56,0,0,1-219.18,12.51q-10.59-4.31-20.68-9.52c8.53-17.72,25.05-32.94,46.62-43.61a157.14,157.14,0,0,1,41.64-13.53,184.08,184.08,0,0,1,64.87,0,156.82,156.82,0,0,1,41.77,13.6C354.07,450.21,369.87,464.29,378.75,480.7Z" />
	<ellipse cx="259.66" cy="438.08" fill="#27273d" rx="74.42" ry="23.48" />
	<path fill="#32314b" d="M227.1,401h65a0,0,0,0,1,0,0v24.22a21,21,0,0,1-21,21H248.13a21,21,0,0,1-21-21V401A0,0,0,0,1,227.1,401Z" />
	<path fill="#9cba5b" d="M50.22,252.1h6.86a0,0,0,0,1,0,0v69.48a0,0,0,0,1,0,0H50.22A29.88,29.88,0,0,1,20.34,291.7V282A29.88,29.88,0,0,1,50.22,252.1Z" />
	<path fill="#b0d46c" d="M87.4,226.11h0a0,0,0,0,1,0,0V347.56a0,0,0,0,1,0,0h0a42.47,42.47,0,0,1-42.47-42.47V268.58A42.47,42.47,0,0,1,87.4,226.11Z" />
	<path fill="#9cba5b" d="M480.8,252.1h6.86a0,0,0,0,1,0,0v69.48a0,0,0,0,1,0,0H480.8a29.88,29.88,0,0,1-29.88-29.88V282A29.88,29.88,0,0,1,480.8,252.1Z" transform="rotate(-180 469.29 286.835)" />
	<path fill="#b0d46c" d="M463.07,226.11h0a0,0,0,0,1,0,0V347.56a0,0,0,0,1,0,0h0a42.47,42.47,0,0,1-42.47-42.47V268.58A42.47,42.47,0,0,1,463.07,226.11Z" transform="rotate(-180 441.835 286.835)" />
	<path fill="#fff" d="M386.16,402.16h-260A42.2,42.2,0,0,1,84,361.66L76.84,185A42.22,42.22,0,0,1,119,141.1H393.31A42.21,42.21,0,0,1,435.48,185l-7.14,176.64A42.21,42.21,0,0,1,386.16,402.16Z" />
	<path fill="#d8d8d8" d="M203.28,402.16H126.16A42.21,42.21,0,0,1,84,361.66L76.84,185A42.22,42.22,0,0,1,119,141.1h77.12A42.21,42.21,0,0,0,154,185l.78,19.2,5.76,142.26.61,15.18A42.21,42.21,0,0,0,203.28,402.16Z" />
	<path fill="#32314b" d="M314.51,356.38q-58.35,20.49-116.7,0a75.22,75.22,0,0,1-75.21-75.21v-15.3a75.21,75.21,0,0,1,75.21-75.21h116.7a75.21,75.21,0,0,1,75.21,75.21v15.3A75.21,75.21,0,0,1,314.51,356.38Z" />
	<path fill="#27273d" d="M160.5,346.48a75.19,75.19,0,0,1-37.89-65.31v-15.3a75.13,75.13,0,0,1,32.13-61.65Z" />
	<ellipse cx="335.07" cy="213.94" fill="#3e436d" rx="13.48" ry="6.13" />
	<ellipse cx="302.5" cy="213.94" fill="#3e436d" rx="10.43" ry="4.74" />
	<circle cx="182.21" cy="276.41" r="19.19" fill="#b0d46c" />
	<circle cx="331.04" cy="276.41" r="19.19" fill="#b0d46c" />
	<path fill="#b0d46c" d="M218.16,308.07h76a0,0,0,0,1,0,0v0a32.6,32.6,0,0,1-32.6,32.6h-10.8a32.6,32.6,0,0,1-32.6-32.6v0A0,0,0,0,1,218.16,308.07Z" />
	<ellipse cx="256.3" cy="155.28" fill="#32314b" rx="35.76" ry="9.22" />
	<polyline fill="none" stroke="#fff" stroke-linecap="round" stroke-linejoin="round" stroke-width="10" points="256.3 155.28 256.3 122.73 227.1 109.5 256.16 95.91 256.16 59.02" />
	<circle cx="256.16" cy="39.47" r="24.96" fill="#b0d46c" />
</svg>
