<svg xmlns="http://www.w3.org/2000/svg" viewBox="0 0 48 48"><circle cx="24" cy="24" r="24" fill="#DE564E"/><path fill="#EDEDED" d="M29.11 38.706v8.74c-.63.14-1.27.25-1.92.33v-9.07h1.92zM20.24 38.706v8.99c-.65-.1-1.29-.22-1.92-.38v-8.61h1.92z"/><path fill="#D9D9D9" d="M27.194 38.709h1.918v2.756h-1.918zM18.318 38.709h1.918v2.756h-1.918z"/><path fill="#393A58" d="M30.4 46.596v.53c-.42.12-.85.23-1.29.32-.63.14-1.27.25-1.92.33-.37.06-.75.1-1.13.13v-1.31c0-.51.41-.92.91-.92h2.51c.51 0 .92.41.92.92zM21.37 46.596v1.26c-.38-.04-.76-.09-1.13-.16-.65-.1-1.29-.22-1.92-.38-.44-.1-.87-.22-1.29-.35v-.37c0-.51.41-.92.91-.92h2.51c.51 0 .92.41.92.92z"/><path fill="#EDEDED" d="M35.996 36.966a.527.527 0 0 1-.527-.527v-5.471a.73.73 0 0 0-.73-.73h-3.002a.527.527 0 0 1 0-1.054h3.002c.983 0 1.783.8 1.783 1.783v5.471a.526.526 0 0 1-.526.528z"/><path fill="#F8D270" d="M34.112 29.89c0 .882-.723 1.606-1.62 1.606a1.611 1.611 0 0 1-1.606-1.606c0-.897.723-1.606 1.606-1.606.896 0 1.62.709 1.62 1.606z"/><path fill="#282941" d="M37.599 37.346c0 .574-.302 1.08-.759 1.363v-1.732h-1.703v1.732a1.599 1.599 0 0 1-.759-1.363 1.6 1.6 0 0 1 1.606-1.606c.894 0 1.615.711 1.615 1.606z"/><circle cx="35.988" cy="36.343" r=".42" fill="#EDEDED"/><path fill="#EDEDED" d="M11.434 36.966a.527.527 0 0 0 .527-.527v-5.471a.73.73 0 0 1 .73-.73h3.002a.527.527 0 0 0 0-1.054H12.69c-.983 0-1.783.8-1.783 1.783v5.471c0 .292.235.528.527.528z"/><path fill="#F8D270" d="M13.318 29.89c0 .882.723 1.606 1.62 1.606.883 0 1.606-.723 1.606-1.606 0-.897-.723-1.606-1.606-1.606-.896 0-1.62.709-1.62 1.606z"/><path fill="#282941" d="M9.831 37.346c0 .574.302 1.08.759 1.363v-1.732h1.703v1.732c.457-.282.759-.788.759-1.363a1.6 1.6 0 0 0-1.606-1.606c-.894 0-1.615.711-1.615 1.606z"/><circle cx="11.442" cy="36.343" r=".42" fill="#EDEDED"/><path fill="#393A58" d="M25.091 19.517a.419.419 0 0 1-.491-.397c-.08-2.145-.875-4.267-1.156-6.471-.15-1.177-.281-3.882 1.287-5.737a2.717 2.717 0 0 1-.318-1.328c.04-1.379 1.088-2.689 2.549-3.186a.42.42 0 0 1 .269.793c-1.119.381-1.951 1.397-1.981 2.417-.006.225.036.457.119.68.591-.48 1.342-.809 2.081-.639 1.474.336 1.713 2.464-.163 2.73-.769.103-1.493-.209-2.039-.76-.868 1.165-1.228 2.926-.973 4.924.274 2.15 1.078 4.294 1.162 6.546a.42.42 0 0 1-.346.428zm.726-12.513c.351.373.844.615 1.359.546.934-.141.689-.948.086-1.085-.508-.117-1.049.2-1.445.539z"/><path fill="#282941" d="M20.973 17.638h5.482v9.343h-5.482z"/><path fill="#393A58" d="M27.27 19.995a.713.713 0 0 1-.708.709H20.86a.706.706 0 0 1-.7-.709c0-.388.312-.7.7-.7h5.702c.387 0 .708.312.708.7zM27.27 21.576a.713.713 0 0 1-.708.708H20.86a.705.705 0 0 1 0-1.408h5.702c.387 0 .708.312.708.7zM27.27 23.157a.713.713 0 0 1-.708.708H20.86a.705.705 0 0 1 0-1.408h5.702a.707.707 0 0 1 .708.7zM27.27 24.739a.713.713 0 0 1-.708.708H20.86a.706.706 0 0 1-.7-.708c0-.388.312-.7.7-.7h5.702c.387 0 .708.312.708.7z"/><path fill="#EDEDED" d="M19.143 13.492h9.699v5.104h-9.699z"/><circle cx="31.196" cy="16.044" r="5.937" fill="#FFF"/><path fill="#393A58" d="M31.196 21.138a5.1 5.1 0 0 1-5.094-5.094c0-2.809 2.285-5.094 5.094-5.094s5.094 2.285 5.094 5.094a5.1 5.1 0 0 1-5.094 5.094z"/><circle cx="31.196" cy="16.044" r="2.564" fill="#3BB5C5"/><circle cx="32.866" cy="14.374" r=".894" fill="#FFF"/><circle cx="16.788" cy="16.044" r="5.937" fill="#FFF"/><path fill="#393A58" d="M16.788 21.138a5.1 5.1 0 0 1-5.094-5.094 5.1 5.1 0 0 1 5.094-5.094 5.1 5.1 0 0 1 5.094 5.094 5.1 5.1 0 0 1-5.094 5.094z"/><circle cx="16.788" cy="16.044" r="2.564" fill="#3BB5C5"/><circle cx="18.458" cy="14.374" r=".894" fill="#FFF"/><path fill="#3BB5C5" d="M32.499 27.525v11.679c0 .603-.487 1.1-1.09 1.1H16.021c-.603 0-1.09-.496-1.09-1.1V27.525c0-.603.487-1.09 1.09-1.09h15.387c.604 0 1.091.487 1.091 1.09z"/><path fill="#2FA6AE" d="M17.851 29.355h11.728v8.029H17.851z"/></svg>