<svg xmlns="http://www.w3.org/2000/svg" viewBox="0 0 48 48"><circle cx="24" cy="24" r="24" fill="#54BB6C"/><path fill="#393A58" d="M24.897 7.134v6.493c0 .493-.402.895-.895.895s-.895-.402-.895-.895V7.134c0-.498.402-.895.895-.895s.895.397.895.895z"/><path fill="#D9D9D9" d="M28.335 37.846v9.75c-1.4.27-2.85.4-4.33.4a23.6 23.6 0 0 1-4.23-.38v-9.77h8.56z"/><path fill="#393A58" d="m41.419 20.617-.519 8.477a1.289 1.289 0 0 1-1.266 1.198h-3.567l.48-10.958h3.71c.685-.001 1.206.576 1.162 1.283zM6.692 20.617l.519 8.477a1.289 1.289 0 0 0 1.266 1.198h3.567l-.481-10.958h-3.71c-.684-.001-1.205.576-1.161 1.283z"/><path fill="#EDEDED" d="m39.91 17.152-1.529 18.934a2.129 2.129 0 0 1-2.117 1.956H34.23a3.637 3.637 0 0 0-3.086 1.711 3.64 3.64 0 0 1-3.086 1.711h-8.004a3.637 3.637 0 0 1-3.086-1.711 3.64 3.64 0 0 0-3.086-1.711h-2.035a2.129 2.129 0 0 1-2.117-1.956L8.201 17.152a2.136 2.136 0 0 1 2.128-2.299h27.455c1.25 0 2.223 1.07 2.126 2.299z"/><path fill="#393A58" d="M34.364 25.931c.871 1.711.639 3.588-.516 4.176-1.162.592-2.817-.324-3.688-2.035-.875-1.718-.639-3.588.524-4.18 1.155-.588 2.805.321 3.68 2.039z"/><path fill="#3BB5C5" d="M33.49 26.33a1.397 1.397 0 0 1-.614 1.887 1.395 1.395 0 0 1-1.879-.617 1.394 1.394 0 0 1 .61-1.876 1.395 1.395 0 0 1 1.883.606z"/><circle cx="32.678" cy="25.636" r=".409" fill="#FFF"/><path fill="#393A58" d="M13.747 25.931c-.871 1.711-.639 3.588.516 4.176 1.163.592 2.817-.324 3.688-2.035.875-1.718.639-3.588-.524-4.18-1.155-.588-2.805.321-3.68 2.039z"/><path fill="#3BB5C5" d="M14.621 26.33a1.397 1.397 0 0 0 .614 1.887c.687.35 1.526.077 1.879-.617a1.394 1.394 0 0 0-.61-1.876 1.395 1.395 0 0 0-1.883.606z"/><circle cx="15.433" cy="25.636" r=".409" fill="#FFF"/><path fill="#393A58" d="M25.456 33.841c0 .77-.631 1.401-1.401 1.401a1.405 1.405 0 0 1 0-2.812c.77 0 1.401.63 1.401 1.411z"/><path fill="#D9D9D9" d="M28.498 37.54v1.604a.502.502 0 0 1-.502.503h-7.879a.502.502 0 0 1-.502-.503V37.54c0-.278.224-.502.502-.502h7.879a.501.501 0 0 1 .502.502z"/><path fill="#282941" d="M39.707 16.062c-.043-.011-.075-.011-.118-.011H12.135a2.138 2.138 0 0 0-2.128 2.309l1.529 18.923c.021.267.096.524.203.748-1.058-.043-1.914-.866-2.01-1.946L8.201 17.152a2.136 2.136 0 0 1 2.128-2.299h27.455c.854 0 1.581.503 1.923 1.209z" opacity=".1"/><path fill="#DE564E" d="m30.513 14.853-1.882 5.442a3.005 3.005 0 0 1-2.908 2.277h-3.336a3.007 3.007 0 0 1-2.908-2.277l-1.882-5.442c0-.492.513-.887 1.326-1.187.834.77 2.822 1.326 5.132 1.326 2.32 0 4.309-.556 5.132-1.326.813.3 1.326.696 1.326 1.187z"/><path fill="#D9D9D9" d="M29.187 13.667c-.823.77-2.812 1.326-5.132 1.326-2.309 0-4.298-.556-5.132-1.326 2.481-.909 7.784-.909 10.264 0z"/><path fill="#FFF" d="M37.423 17.629c-.34 0-.599.248-.599.577 0 .289.232.577.607.577.35 0 .6-.278.6-.584-.001-.312-.277-.57-.608-.57z"/></svg>