<svg xmlns="http://www.w3.org/2000/svg" viewBox="0 0 48 48">
	<path fill="#7B4CA6" d="M24 .002c-13.255 0-24 10.745-24 24 0 9.251 5.238 17.275 12.907 21.281h7.156v-.625h15.813v.182C43.112 40.708 48 32.933 48 24.002c0-13.255-10.745-24-24-24z" />
	<path fill="#393A58" d="M21.781 27.528h4.438v7.755h-4.438z" />
	<path fill="#FFF" d="M28.176 7.469v3.417c0 .465-.38.845-.845.845h-6.549a.847.847 0 0 1-.845-.845V7.469c0-.465.38-.845.845-.845h6.549c.465 0 .845.38.845.845z" />
	<path fill="#DE564E" d="M38.184 17.338a1.944 1.944 0 0 1-1.947 1.947 1.944 1.944 0 0 1-1.947-1.947 1.95 1.95 0 0 1 1.947-1.947 1.95 1.95 0 0 1 1.947 1.947zM13.71 17.338a1.944 1.944 0 0 1-1.947 1.947 1.944 1.944 0 0 1-1.947-1.947 1.95 1.95 0 0 1 1.947-1.947 1.95 1.95 0 0 1 1.947 1.947z" />
	<path fill="#3BB5C5" d="M24 7.564a6.384 6.384 0 1 0 0 12.766 6.382 6.382 0 1 0 0-12.766z" />
	<path fill="#F8D270" d="M36.231 12.135v15.267a2.2 2.2 0 0 1-2.2 2.2h-5.775c-.869 1.474-2.464 2.431-4.257 2.431s-3.388-.957-4.257-2.431h-5.775c-1.21 0-2.2-.99-2.2-2.2V12.135c0-1.21.99-2.2 2.2-2.2H34.03a2.2 2.2 0 0 1 2.201 2.2z" />
	<path fill="#393A58" d="M35.98 11.138c-.27-.13-.57-.2-.89-.2H15.03c-1.21 0-2.2.99-2.2 2.2v15.27c0 .36.09.69.24.99-.77-.34-1.3-1.11-1.3-2v-15.26c0-1.21.99-2.2 2.2-2.2h20.06c.86 0 1.6.49 1.95 1.2z" opacity=".1" />
	<path fill="#393A58" d="M33.487 14.203v6.6a1.19 1.19 0 0 1-1.188 1.188H15.701a1.19 1.19 0 0 1-1.188-1.188v-6.6c0-.66.539-1.188 1.188-1.188h16.598a1.19 1.19 0 0 1 1.188 1.188z" />
	<path fill="#FFF" d="M32.382 14.709v5.588c0 .33-.264.594-.594.594H16.212a.592.592 0 0 1-.594-.594v-5.588c0-.33.264-.594.594-.594h15.575c.331 0 .595.264.595.594z" />
	<path fill="#3BB5C5" d="m21.058 14.115-2.662 6.775h-.638l2.431-6.775zM25.139 14.115l-2.431 6.775H19.32l2.75-6.775zM25.776 14.115h.914l-2.475 6.775h-.781zM30.242 14.115 28.02 20.89h-.594l2.332-6.775z" opacity=".1" />
	<path fill="#DE564E" d="M20.365 28.365A3.85 3.85 0 0 0 24 30.928a3.861 3.861 0 0 0 3.634-2.563h-7.269z" />
	<path fill="#282941" d="M25.419 25.887a1.418 1.418 0 1 1-2.838 0c0-.781.638-2.849 1.419-2.849.792 0 1.419 2.068 1.419 2.849z" opacity=".1" />
	<path fill="#EDEDED" d="M36.14 44.698c-3.56 2.1-7.71 3.3-12.14 3.3-4.04 0-7.85-1-11.19-2.77l1.89-10.33c.18-.97 1.36-1.74 2.63-1.74h14.4c1.27 0 2.44.77 2.62 1.74l1.79 9.8z" />
	<path fill="#D9D9D9" d="M19.082 37.38v3.309a.97.97 0 0 1-.972.972.97.97 0 0 1-.972-.972V37.38a.97.97 0 0 1 .972-.972.97.97 0 0 1 .972.972zM23.201 37.38v3.309a.97.97 0 0 1-.972.972.97.97 0 0 1-.972-.972V37.38a.97.97 0 0 1 .972-.972.97.97 0 0 1 .972.972zM27.32 37.38v3.309a.97.97 0 0 1-.972.972.97.97 0 0 1-.972-.972V37.38a.97.97 0 0 1 .972-.972.97.97 0 0 1 .972.972zM31.439 37.38v3.309a.97.97 0 0 1-.972.972.97.97 0 0 1-.972-.972V37.38a.97.97 0 0 1 .972-.972.97.97 0 0 1 .972.972z" />
</svg>
