<svg xmlns="http://www.w3.org/2000/svg" viewBox="0 0 48 48"><circle cx="24" cy="24" r="24" fill="#F8D270"/><path fill="#393A58" d="M27.9 43.286v4.39a23.867 23.867 0 0 1-7.8 0v-4.39h7.8zM38.719 33.956a2.12 2.12 0 0 1-2.13 2.12h-6.071v1.5h6.071c1.964 0 3.63-1.575 3.63-3.62a3.634 3.634 0 0 0-3.63-3.63h-1.957v1.5h1.957c1.174 0 2.13.955 2.13 2.13zM9.58 36.946c0-1.216.993-2.12 2.13-2.12h6.071v-1.5H11.71c-1.964 0-3.63 1.575-3.63 3.62a3.634 3.634 0 0 0 3.63 3.63h1.957v-1.5H11.71a2.133 2.133 0 0 1-2.13-2.13zM26.46 3.476c-.324-.403-.933-.452-1.45-.4.263-.526.615-.823 1.08-1.21a.26.26 0 0 0 .04-.38.26.26 0 0 0-.38-.04c-.592.488-1.119.952-1.34 1.69-.41.07-.76.18-1.07.36-.68.38-1.12 1.07-1.11 1.74 0 .59.3 1.08.59 1.55.319.532.54.944.71 1.58.22.79.27 1.63.14 2.45a.278.278 0 0 0 .23.31c.162 0 .283-.058.31-.22.14-.86.09-1.73-.12-2.56-.204-.771-.454-1.246-.81-1.84-.26-.43-.5-.83-.51-1.27 0-.628.568-1.351 1.57-1.53.064.966.855 1.467 1.51 1.32.676-.144 1.044-1.024.61-1.55zm-.73 1.02c-.397.093-.884-.338-.84-.87.353-.027.932-.083 1.15.19.17.203-.03.624-.31.68z"/><circle cx="24" cy="13.016" r="4.667" fill="#DE564E"/><path fill="#393A58" d="m25.504 27.052 2.032 6.635h-7.072l2.032-6.635z"/><path fill="#ED7167" d="M40.354 19.665c0 .3-.238.537-.527.537h-2.811a.532.532 0 0 1 0-1.064h2.811c.289 0 .527.237.527.527z"/><path fill="#EDEDED" d="M38.421 18.573v2.39c0 .492-.405.89-.896.89h-1.388v-4.17h1.388c.492 0 .896.398.896.89z"/><path fill="#393A58" d="M37.279 17.784v3.969c0 .816-.672 1.478-1.488 1.478h-2.305v-6.924h2.305a1.485 1.485 0 0 1 1.488 1.477z"/><path fill="#ED7167" d="M7.646 19.871c0-.3.238-.537.527-.537h2.811a.532.532 0 0 1 0 1.064H8.173a.529.529 0 0 1-.527-.527z"/><path fill="#EDEDED" d="M9.579 20.963v-2.39c0-.492.405-.89.896-.89h1.388v4.17h-1.388a.895.895 0 0 1-.896-.89z"/><path fill="#393A58" d="M10.721 21.752v-3.969c0-.816.672-1.478 1.488-1.478h2.305v6.924h-2.305a1.485 1.485 0 0 1-1.488-1.477z"/><path fill="#EDEDED" d="M33.512 11.858a57.355 57.355 0 0 0-19.024 0c-1.171.208-2.115 1.364-2.115 2.528v11.627c0 1.164.943 2.321 2.115 2.528a57.355 57.355 0 0 0 19.024 0c1.171-.208 2.115-1.364 2.115-2.528V14.386c0-1.164-.944-2.321-2.115-2.528z"/><path fill="#D9D9D9" d="M35.074 12.854a2.375 2.375 0 0 0-.703-.258 57.576 57.576 0 0 0-19.016 0c-1.178.217-2.119 1.364-2.119 2.532v11.627c0 .558.217 1.106.568 1.55-.827-.444-1.426-1.364-1.426-2.294V14.383c0-1.157.941-2.315 2.108-2.522a57.107 57.107 0 0 1 19.027 0c.62.114 1.179.486 1.561.993z"/><path fill="#393A58" d="M16.934 25.883c-1.019-.11-1.795-.989-1.795-2.043v-7.276a2.06 2.06 0 0 1 1.795-2.054 60.256 60.256 0 0 1 14.128-.001 2.068 2.068 0 0 1 1.809 2.055v7.276c0 1.036-.797 1.934-1.814 2.044-4.771.567-9.488.571-14.123-.001z"/><path fill="#3BB5C5" d="M32.299 16.564v7.276c0 .743-.56 1.396-1.304 1.476-4.666.554-9.327.574-13.991 0-.744-.08-1.293-.732-1.293-1.476v-7.276c0-.755.549-1.396 1.293-1.487a59.63 59.63 0 0 1 13.991 0 1.495 1.495 0 0 1 1.304 1.487z"/><path fill="#393A58" d="M30.321 20.202a2.417 2.417 0 0 1-2.408 2.408 2.41 2.41 0 0 1-2.408-2.408 2.404 2.404 0 0 1 2.408-2.408 2.41 2.41 0 0 1 2.408 2.408z"/><path fill="#EDEDED" d="M29.161 20.202c0 .686-.562 1.248-1.248 1.248a1.249 1.249 0 0 1 0-2.496c.686 0 1.248.557 1.248 1.248z"/><path fill="#393A58" d="M22.505 20.202a2.417 2.417 0 0 1-2.408 2.408 2.41 2.41 0 0 1-2.408-2.408 2.404 2.404 0 0 1 2.408-2.408 2.41 2.41 0 0 1 2.408 2.408z"/><path fill="#EDEDED" d="M21.345 20.202c0 .686-.562 1.248-1.248 1.248a1.249 1.249 0 0 1 0-2.496c.686 0 1.248.557 1.248 1.248z"/><path fill="#ED7167" d="M32.87 33.156v10.63c0 .76-.61 1.37-1.37 1.37H17.08c-.76 0-1.37-.61-1.37-1.37v-10.63c0-.76.61-1.37 1.37-1.37H31.5c.76 0 1.37.61 1.37 1.37z"/><path fill="#DE564E" d="M30.15 41.056v4.1H18.43v-4.1c0-3.23 2.63-5.85 5.86-5.85a5.852 5.852 0 0 1 5.86 5.85z"/><path fill="#FFF" d="M16.34 40.816c.03.05.02.11-.01.16-.39.53-1.02.85-1.68.85a2.085 2.085 0 0 1 0-4.17c.66 0 1.29.32 1.68.85.03.05.04.11.01.16-.02.05-.07.08-.13.08h-.97l-.73 1 .73.99h.97c.06 0 .11.03.13.08zM31.959 30.086c-.03-.05-.02-.11.01-.16.39-.53 1.02-.85 1.68-.85a2.085 2.085 0 0 1 0 4.17c-.66 0-1.29-.32-1.68-.85-.03-.05-.04-.11-.01-.16.02-.05.07-.08.13-.08h.97l.73-1-.73-.99h-.97c-.06 0-.11-.03-.13-.08z"/></svg>