<svg xmlns="http://www.w3.org/2000/svg" xmlns:svgjs="http://svgjs.com/svgjs" xmlns:xlink="http://www.w3.org/1999/xlink" width="288" height="288" viewBox="0 0 68 58">
	<path fill="#d5d4db" fill-rule="evenodd" d="M5.994 58C2.681 58 0 55.31 0 51.992V20.008A6.002 6.002 0 0 1 6.006 14H23c1.775 0 3.793 1.083 4.78 2.562l1.77 2.657c.247.37 1.013.781 1.455.781h18.993C53.311 20 56 22.68 56 25.99v26.02A5.993 5.993 0 0 1 50.006 58H5.994zM12 11V6.002A6 6 0 0 1 18 0h17c1.774 0 3.792 1.083 4.778 2.562l1.772 2.657c.246.37 1.012.781 1.454.781h18.99C65.31 6 68 8.68 68 11.99v26.02c0 3.31-2.689 5.99-6.002 5.99H59V25.99c0-4.968-4.032-8.99-9.003-8.99H31.676l-1.402-2.102C28.732 12.584 25.777 11 23 11H12z" class="color000 svgShape" />
</svg>
