<svg xmlns="http://www.w3.org/2000/svg" xmlns:svgjs="http://svgjs.com/svgjs" xmlns:xlink="http://www.w3.org/1999/xlink" width="288" height="288" enable-background="new 0 0 24 24" viewBox="0 0 24 24">
	<path fill="#d5d4db" d="M14.7,9.9l7.6-7.6C21.9,2.1,21.4,2,21,2H7C6.6,2,6.1,2.1,5.7,2.3l7.6,7.6C13.7,10.3,14.3,10.3,14.7,9.9z M23.7,3.7l-7.6,7.6	c-1.2,1.2-3.1,1.2-4.2,0l0,0L4.3,3.7C4.1,4.1,4,4.6,4,5v10c0,1.7,1.3,3,3,3h14c1.7,0,3-1.3,3-3V5C24,4.6,23.9,4.1,23.7,3.7z M17,20
	H5c-1.7,0-3-1.3-3-3V9c0-0.6-0.4-1-1-1S0,8.4,0,9v8c0,2.8,2.2,5,5,5h12c0.6,0,1-0.4,1-1S17.6,20,17,20z" class="color000 svgShape" />
</svg>
